<?xml version="1.0" encoding="UTF-8" standalone="no"?>
<!DOCTYPE svg PUBLIC "-//W3C//DTD SVG 1.1//EN" "http://www.w3.org/Graphics/SVG/1.1/DTD/svg11.dtd">
<svg width="100%" height="100%" viewBox="0 0 751 751" version="1.1" xmlns="http://www.w3.org/2000/svg" xmlns:xlink="http://www.w3.org/1999/xlink" xml:space="preserve" xmlns:serif="http://www.serif.com/" style="fill-rule:evenodd;clip-rule:evenodd;stroke-linejoin:round;stroke-miterlimit:2;">
	<style>
		rect {
			fill: none;
		}
		path {
			fill: #212336;
		}
		@media (prefers-color-scheme: dark) {
			rect {
				fill: #212336;
			}
			path {
				fill: #ffffff;
			}
		}
	</style>
		<rect x="0" y="0" width="100%" height="100%" />
		<path d="M239.912,271.475c-34.28,-18.698 -69.339,-48.304 -69.339,-91.154c-0,-31.163 24.151,-57.653 56.873,-57.653c36.618,0 61.549,28.827 61.549,63.886c-0,36.617 -21.036,63.886 -49.083,84.921Zm230.611,-16.361c21.036,-0.779 50.641,0.779 50.641,28.827c0,31.163 -63.106,126.992 -81.804,157.376c-46.746,-63.106 -107.515,-119.98 -178.413,-158.935c42.85,-25.71 87.259,-49.862 87.259,-106.735c-0,-59.211 -60.769,-81.026 -110.631,-81.026c-64.665,0 -130.888,45.187 -130.888,114.527c-0,45.187 22.594,81.804 58.432,108.294c-63.107,33.501 -122.318,96.607 -122.318,172.179c0,91.933 66.223,160.493 158.156,160.493c81.026,0 147.249,-56.094 194.773,-116.864c39.734,61.549 84.142,122.318 164.389,122.318c63.107,-0 115.306,-44.408 148.807,-95.049l-16.361,-12.466c-23.373,28.047 -45.188,45.187 -82.584,45.187c-66.223,0 -122.318,-82.583 -155.04,-131.666c45.188,-54.537 112.19,-197.111 190.878,-202.564c14.024,-1.559 28.048,-3.117 42.071,-3.117l0,-23.373c-36.617,1.559 -72.455,3.117 -109.073,3.117c-35.838,-0 -72.455,-1.558 -108.294,-3.117l0,22.594Zm-287.485,74.793c78.688,46.746 146.47,109.073 199.448,183.866c-38.176,39.734 -67.781,61.548 -125.434,61.548c-74.793,0 -139.458,-58.432 -139.458,-134.004c0,-48.303 28.827,-83.363 65.444,-111.41Z" />
</svg>
