<?xml version="1.0" standalone="no"?>
<!DOCTYPE svg PUBLIC "-//W3C//DTD SVG 20010904//EN"
 "http://www.w3.org/TR/2001/REC-SVG-20010904/DTD/svg10.dtd">
<svg version="1.0" xmlns="http://www.w3.org/2000/svg"
 width="1502.000000pt" height="1502.000000pt" viewBox="0 0 1502.000000 1502.000000"
 preserveAspectRatio="xMidYMid meet">
<metadata>
Created by potrace 1.11, written by Peter Selinger 2001-2013
</metadata>
<g transform="translate(0.000000,1502.000000) scale(0.100000,-0.100000)"
fill="#000000" stroke="none">
<path d="M4618 13125 c-2 -2 -46 -6 -98 -9 -53 -4 -107 -9 -120 -11 -14 -3
-47 -8 -75 -11 -27 -3 -92 -14 -145 -25 -384 -79 -748 -232 -1057 -445 -97
-67 -97 -67 -207 -158 -93 -77 -251 -238 -312 -318 -26 -34 -51 -65 -54 -68
-4 -3 -29 -39 -57 -80 -192 -284 -321 -635 -349 -950 -12 -138 -4 -524 11
-550 2 -3 6 -26 10 -50 10 -72 15 -104 20 -120 2 -8 7 -30 10 -49 3 -19 8 -37
10 -41 2 -4 7 -22 10 -41 18 -104 153 -441 231 -578 202 -351 455 -639 797
-904 l58 -45 -61 -36 c-34 -20 -63 -36 -65 -36 -5 0 -153 -89 -255 -154 -41
-26 -84 -53 -94 -59 -11 -7 -29 -20 -40 -29 -11 -10 -23 -18 -27 -18 -4 0 -14
-6 -21 -13 -7 -7 -35 -28 -63 -47 -85 -57 -281 -210 -340 -263 -11 -10 -58
-51 -104 -90 -115 -98 -342 -327 -453 -456 -50 -58 -101 -119 -115 -134 -62
-71 -264 -360 -318 -454 -6 -10 -29 -50 -52 -88 -70 -119 -205 -401 -219 -458
-3 -15 -10 -30 -15 -33 -5 -3 -9 -13 -9 -22 0 -9 -6 -28 -13 -42 -16 -30 -101
-320 -112 -380 -2 -14 -6 -36 -9 -50 -10 -45 -35 -204 -41 -255 -14 -135 -17
-192 -17 -335 -1 -222 14 -389 53 -620 30 -173 106 -461 149 -565 4 -11 16
-40 25 -65 65 -175 199 -433 318 -610 136 -203 335 -431 497 -570 14 -12 39
-34 55 -49 17 -14 78 -62 137 -106 423 -317 933 -519 1483 -589 36 -5 91 -10
215 -21 60 -5 384 -6 435 -1 22 3 78 7 125 11 47 3 110 10 140 15 30 5 75 12
100 15 38 6 201 38 250 50 394 97 813 271 1172 488 117 70 220 136 270 172 31
22 66 47 79 55 31 21 183 135 249 187 210 166 370 311 610 552 222 222 379
397 615 686 22 27 49 60 61 73 l20 24 148 -223 c173 -260 275 -409 395 -569
79 -107 262 -338 293 -371 7 -8 40 -46 72 -84 100 -118 405 -415 526 -513 63
-51 124 -100 134 -109 31 -25 266 -178 326 -212 186 -103 393 -191 578 -246
172 -50 220 -61 432 -92 170 -25 603 -24 737 1 10 2 41 7 68 10 156 21 381 82
579 158 449 171 877 460 1285 866 166 166 249 256 332 362 24 30 50 61 57 69
23 24 155 201 230 308 l71 102 -162 125 -162 124 -35 -37 c-19 -20 -60 -66
-92 -102 -193 -221 -435 -431 -621 -536 -370 -209 -829 -278 -1260 -188 -450
93 -938 397 -1418 883 -192 194 -261 270 -410 447 -217 259 -457 579 -674 900
-48 72 -124 183 -168 247 l-80 117 90 113 c135 171 267 360 581 833 670 1009
666 1003 929 1365 101 139 298 393 392 505 168 199 220 256 405 440 149 147
240 230 387 347 28 23 96 70 289 198 26 17 200 103 280 138 83 36 274 88 358
98 26 3 58 7 72 9 14 3 54 7 90 10 36 3 81 8 100 10 19 3 62 7 95 10 33 3 76
8 95 10 73 10 289 23 421 26 l77 2 -2 231 -1 231 -100 -1 c-55 -1 -170 -5
-255 -8 -85 -4 -213 -9 -285 -12 -71 -2 -170 -7 -220 -9 -81 -3 -180 -6 -680
-20 -204 -6 -1059 -6 -1275 0 -297 8 -561 16 -660 20 -52 2 -162 7 -245 10
-82 2 -199 7 -260 10 -60 3 -167 7 -237 10 l-128 6 0 -228 0 -228 163 0 c180
-1 245 -6 361 -30 185 -38 324 -120 406 -240 26 -38 75 -155 65 -155 -2 0 0
-12 5 -26 14 -36 14 -179 0 -239 -7 -27 -14 -59 -16 -70 -14 -74 -72 -241
-134 -390 -81 -194 -318 -662 -456 -898 -19 -32 -34 -61 -34 -64 0 -4 -11 -23
-24 -42 -13 -20 -79 -130 -146 -246 -109 -187 -177 -300 -259 -431 -41 -66
-84 -135 -111 -181 -14 -24 -61 -100 -105 -170 -44 -70 -89 -141 -100 -159
-11 -18 -49 -81 -85 -139 -36 -58 -72 -114 -81 -125 -9 -11 -27 -40 -40 -65
-13 -25 -27 -45 -30 -45 -4 0 -55 64 -115 143 -59 78 -111 144 -114 147 -3 3
-21 25 -40 50 -31 41 -109 135 -164 200 -12 14 -39 48 -61 75 -22 28 -43 52
-46 55 -3 3 -43 48 -88 100 -224 256 -642 689 -816 846 -16 15 -59 54 -95 88
-525 492 -1243 1018 -1903 1395 l-128 73 178 107 c332 200 568 355 718 470 33
25 62 48 65 51 3 3 27 23 55 45 78 62 276 262 342 345 196 245 313 510 368
835 16 98 22 298 12 425 -54 661 -543 1152 -1362 1370 -60 16 -123 31 -140 34
-31 6 -63 12 -105 21 -14 3 -43 7 -65 10 -22 3 -69 10 -105 15 -36 6 -99 13
-140 16 -80 6 -418 13 -422 9z m82 -569 c514 -61 906 -410 1035 -922 32 -126
40 -193 40 -354 0 -159 -9 -246 -39 -385 -22 -107 -68 -239 -122 -353 -24 -51
-44 -96 -44 -98 0 -16 -145 -233 -208 -314 -76 -96 -310 -335 -392 -401 -25
-20 -74 -59 -109 -88 l-64 -51 -56 32 c-213 121 -470 297 -599 411 -130 115
-243 227 -308 307 -16 19 -35 41 -41 48 -36 37 -148 210 -197 303 -78 147
-143 335 -161 465 -3 21 -8 50 -11 64 -10 46 -12 274 -3 345 15 109 78 313
119 385 5 8 18 32 30 54 60 110 187 252 305 341 143 107 351 191 523 211 31 3
58 7 59 8 5 4 192 -2 243 -8z m-861 -4243 c223 -136 605 -392 826 -553 161
-117 414 -308 425 -320 3 -3 64 -52 135 -110 72 -57 148 -120 170 -139 23 -20
67 -58 100 -86 105 -89 150 -128 155 -134 3 -3 41 -38 85 -76 236 -207 710
-680 961 -960 308 -342 582 -681 851 -1050 l103 -140 -203 -200 c-111 -110
-236 -230 -277 -265 -41 -36 -77 -67 -80 -70 -46 -48 -353 -268 -460 -329
-187 -106 -459 -223 -600 -256 -8 -2 -51 -13 -95 -24 -44 -11 -96 -23 -115
-26 -19 -3 -47 -8 -62 -11 -15 -3 -41 -7 -58 -9 -55 -7 -114 -16 -140 -20 -55
-9 -243 -18 -390 -18 -181 -1 -319 8 -447 28 -18 3 -50 8 -70 11 -50 7 -245
52 -308 71 -212 63 -451 164 -620 261 -65 38 -243 152 -272 176 -10 8 -56 45
-103 82 -152 121 -306 275 -419 419 -34 44 -69 88 -76 97 -8 9 -22 29 -32 45
-10 15 -21 33 -26 38 -125 162 -322 599 -363 805 -3 13 -13 60 -24 105 -10 44
-22 103 -25 130 -4 28 -9 59 -11 70 -24 126 -23 573 1 665 2 8 6 33 10 55 3
22 7 47 10 55 2 8 6 31 9 51 9 61 75 268 123 384 181 444 544 890 1058 1298
39 31 72 56 74 57 2 0 83 -48 180 -107z"/>
</g>
</svg>
